<svg width="4096" height="1024" xmlns="http://www.w3.org/2000/svg" class="icon">
 <defs>
  <style type="text/css"/>
 </defs>
 <g>
  <title>background</title>
  <rect fill="none" id="canvas_background" height="1026" width="4098" y="-1" x="-1"/>
 </g>
 <g>
  <title>Layer 1</title>
  <path stroke-width="0" id="svg_1" fill="#ffffff" d="m512.001,1024c-12.20004,0 -23.73941,-2.78364 -32.49513,-7.83917l-387.65672,-223.81472c-18.2201,-10.51986 -32.49513,-35.24279 -32.49513,-56.28252l0,-447.62843c0,-21.03972 14.27503,-45.76165 32.49513,-56.28252l387.65672,-223.81471c8.75572,-5.05453 20.29509,-7.83817 32.49513,-7.83817c12.19804,0 23.73841,2.78364 32.49413,7.83817l387.65872,223.81471c18.2211,10.51987 32.49413,35.2428 32.49413,56.28252l0,447.62943c0,21.03973 -14.27203,45.76166 -32.49413,56.28252l-387.65872,223.81472c-8.75572,5.05453 -20.29609,7.83817 -32.49413,7.83817zm0,-1010.04581c-9.73125,0 -19.12266,2.19992 -25.76642,6.03705l-387.65771,223.81471c-13.96718,8.06307 -25.76742,28.50209 -25.76742,44.62921l0,447.62943c0,16.12813 11.80024,36.56615 25.76742,44.62821l387.65771,223.81572c6.64376,3.83712 16.03517,6.03605 25.76642,6.03605s19.12266,-2.19893 25.76642,-6.03605l387.65871,-223.81572c13.96718,-8.06306 25.76642,-28.50108 25.76642,-44.62821l0,-447.62943c0,-16.12812 -11.80024,-36.56614 -25.76642,-44.62921l-387.65871,-223.81571c-6.64376,-3.83613 -16.03517,-6.03605 -25.76642,-6.03605z"/>
  <path stroke-width="0" id="svg_2" fill="#ffffff" d="m497.26126,394.57078c-108.89745,-49.89002 -202.6598,-58.69353 -248.03608,-58.69353c-24.18506,0 -39.30237,2.92357 -39.30237,2.92357c-6.05704,0 -9.08275,5.87994 -9.08275,11.74114l3.02571,387.47362c0,2.9395 0,5.87994 3.01165,8.80164c3.04539,0 6.05517,2.94044 9.08182,2.94044c9.08181,-2.94044 18.14676,-2.94044 27.22952,-2.94044c96.78899,0 244.99162,49.90875 244.99162,49.90875c3.02758,0 3.02758,2.94044 3.02758,2.94044c3.02665,0 6.0533,-2.94044 9.06308,-2.94044c3.04539,-2.93856 3.04539,-5.879 3.04539,-8.80257l0,-381.5918c0,-5.88088 0,-8.82132 -6.05517,-11.76082zm312.8916,-55.76996s-11.98665,-2.92357 -35.94214,-2.92357c-44.92182,0 -137.75649,8.80351 -248.56363,58.69353c-2.99198,2.9395 -5.98489,5.879 -5.98489,11.76082l0,381.5918c0,2.92263 2.99197,5.86401 5.98489,8.80257c0,0 2.99197,2.94044 5.98582,2.94044c2.99198,0 2.99198,-2.94044 2.99198,-2.94044c2.99104,0 149.74313,-49.90875 245.57072,-49.90875c8.99373,0 17.9706,0 23.97235,2.94044c2.99198,0 8.97781,-2.94044 8.97781,-2.94044c2.9901,-2.92076 5.98395,-5.86214 5.98395,-8.80164l2.99292,-387.47362c0,-5.8612 -5.98677,-11.74114 -11.96978,-11.74114zm-327.0297,29.62553c-2.99291,0 -5.98489,0 -8.99467,-2.97511c-87.02407,-68.03677 -204.06067,-71.01095 -204.06067,-71.01095c-6.00176,0 -12.00445,-2.94231 -12.00445,-11.8311c0,-5.91554 6.00269,-11.82922 12.00445,-11.82922c6.00269,0 126.03033,2.95637 219.05804,76.9265c6.00269,5.91555 6.00269,11.83016 3.00884,17.74477c-3.00884,2.97511 -6.00082,2.97511 -9.01154,2.97511zm16.62501,-24.42869c-5.84527,0 -8.78477,0 -11.70835,-5.94929c-35.17282,-56.55988 -120.16913,-92.27713 -123.09083,-92.27713c-5.86214,-2.97323 -8.78477,-8.94125 -5.86214,-14.89147c2.94044,-5.94929 11.72334,-8.92533 17.58829,-5.94929c2.9217,0 90.83877,38.70735 131.87467,101.21746c2.92076,5.94928 2.92076,11.90043 -2.92264,14.87367c-2.9395,2.97605 -2.9395,2.97605 -5.879,2.97605zm47.84258,24.42869c-2.88797,0 -5.79186,0 -8.68076,-2.97511c-2.9039,-5.91461 -2.9039,-11.82922 0,-17.74477c89.80802,-73.97013 208.61095,-76.9265 214.40374,-76.9265c5.79374,0 11.5856,5.91368 11.5856,11.82922c0,8.88879 -5.7928,11.8311 -11.5856,11.8311c-2.90577,0 -115.89903,2.97418 -197.02629,71.01095c-2.88516,2.97511 -5.79186,2.97511 -8.69669,2.97511zm-20.68522,-24.42869c-3.07818,0 -6.17511,0 -6.17511,-2.97511c-6.16199,-2.97324 -9.25985,-8.92439 -6.16199,-14.87368c46.27022,-62.50916 138.82378,-101.21745 141.90384,-101.21745c6.16012,-2.97605 12.33616,0 15.41716,5.94928c3.09786,5.95022 0,11.91825 -6.16012,14.89148c0,0 -89.47537,35.71725 -129.5658,92.27713c-3.09786,5.94835 -6.17885,5.94835 -9.25798,5.94835z"/>
  <path stroke-width="0" id="svg_5" fill="#ffffff" d="m511.999991,1012.444393c-11.930514,0 -23.214953,-2.722143 -31.77724,-7.665985l-379.092512,-218.87015c-17.817577,-10.287453 -31.77724,-34.464198 -31.77724,-55.039113l0,-437.739312c0,-20.574905 13.959662,-44.750672 31.77724,-55.039113l379.092512,-218.87014c8.562286,-4.942864 19.846726,-7.665007 31.77724,-7.665007c11.928558,0 23.213975,2.722143 31.776262,7.665007l379.094467,218.87014c17.818555,10.287462 31.776262,34.464207 31.776262,55.039113l0,437.74029c0,20.574915 -13.956729,44.750682 -31.776262,55.039113l-379.094467,218.87015c-8.562286,4.942864 -19.847704,7.665007 -31.776262,7.665007zm0,-987.731628c-9.516265,0 -18.700197,2.151319 -25.197182,5.903678l-379.09348,218.87014c-13.658614,7.884939 -25.19816,27.872415 -25.19816,43.64325l0,437.74029c0,15.771823 11.539546,35.758322 25.19816,43.642273l379.09348,218.871128c6.496984,3.752349 15.680917,5.9027 25.197182,5.9027s18.700197,-2.150351 25.197182,-5.9027l379.094458,-218.871128c13.658614,-7.884929 25.197182,-27.871427 25.197182,-43.642273l0,-437.74029c0,-15.771814 -11.539546,-35.758312 -25.197182,-43.64325l-379.094458,-218.871118c-6.496984,-3.751381 -15.680917,-5.9027 -25.197182,-5.9027z"/>
  <text xml:space="preserve" text-anchor="start" font-family="Helvetica, Arial, sans-serif" font-size="250" id="svg_7" y="598.397763" x="1346.15625" stroke-width="0" fill="#ffffff">图书馆座位后台管理系统</text>
 </g>
</svg>